<svg xmlns="http://www.w3.org/2000/svg" version="1.1" width="600px" height="600px" viewBox="0 0 200 200" style="overflow:hidden!important;"><g id="svga-group-wrapper"><g id="svga-group-backs-single"></g><g id="svga-group-humanwrap-move" transform="matrix(1,0,0,1,0,0)"><g id="svga-group-humanwrap"><g id="svga-group-hair-back-move" transform="matrix(1,0,0,1,0,0)"><g id="svga-group-hair-back"></g></g><g id="svga-group-humanbody-back"><path id="SvgjsPath7974" d="m168.2 200-4.6-14.2-34.9-13.4-10.8-9.7-1.4-50.5h-33l-1.4 50.5-10.8 9.7-34.9 13.4-4.6 14.2-3 20h142.4z" fill="#f3d4cf" stroke-width="none" opacity="1" stroke="none"></path><path id="SvgjsPath7975" d="m83.5 112.2-1.4 50.5-10.8 9.7-34.9 13.4-4.6 14.2-3 20H39v-20l1.7-13.3 32.1-12.9 14.1-9.5 2-52.1z" fill="#d4958a" stroke-width="none" opacity="1" stroke="none"></path></g><g id="svga-group-chinshadow-single"><path id="SvgjsPath7970" d="m117.5 151.4-1.1-39.3H83.5l-1.2 44.3c3.4 1.7 11 5.4 14.9 5.4 5.2 0 16.6-6.3 16.6-6.3 1.3-1.2 2.5-2.6 3.7-4.1z" fill="#c5796d" stroke-width="none" opacity="1" stroke="none"></path></g><g id="svga-group-humanbody-front"></g><g id="svga-group-clothes-single"><path id="SvgjsPath8593" d="m170.3 199.6-4.7-15.1-32.8-12-2-4.2-3.4-1.2.3-1.3-1.2-7.3-2.5-2.4.3-3.2-3.5-5.4h-3.4l-1 2.2-6.4 5.1-10 1.3-10-1.3-6.4-5.1-1-2.2h-3.4l-3.5 5.4.3 3.2-2.5 2.4-1.2 7.3.3 1.3-3.4 1.2-2 4.2-32.8 12-4.7 15.1-2.9 20.4h146.4z" fill="#19272a" stroke-width="none" opacity="1"></path><path id="SvgjsPath8594" d="m124.3 152.9-3.5 5.9-.4-5.5-3-1.9 2.6 2.6v6.2l-.4.7-3.6 3.5 4.3-2.6 2.9 5.3 1 8.5-.3-9.2-2.7-5.6 2.7-4.7.4-3.2zm-18.9 34H93.8l-13-4.2-1.7-2.4h3.7l2.4.7 1.6 3.3s-.5-1.8-.8-3l5.7 1.7 11.5.2-8-1-.8-7.4.6-3.9 9.2-.4-9.1-.8.3-2.3.6-8.1s-1.6 8.4-1.4 8.7c0 .1-.1.7-.2 1.6h-.3l-5.8-3.2.9-1.8.6-8.3-1.2 8-.9 1.8-1.1-.6-.8-2.5 1-3.9 3-2.7 9.6 1.5 11.7-1.7 8.4-7.9s-.1-.3-.2-.7h-1.8l-1 2.2-6.4 5.1-10 1.4-10-1.4-6.4-5.1-1-2.2h-3.3l-3.6 5.4.3 3.2-2.5 2.4-1.2 7.3.3 1.4-3.4 1.2-2 4.2-32.8 12-4.7 15-3 20.3h8l3.8-24.3 1.8-3.6c2.8 3.2 7.1 8.4 7.1 8.4l4 13.7.3 5.9H54c-.2-3.4-.4-7.2-.4-7.5 0-.5-5.1-13.2-5.1-13.2l-7.9-7.5.3-.6 32.6-9.6 3.9 1.2 14.9 5.2 13 .2 10.7-3 8.3-7.1-8.3 5.9-10.6 2.8zM92.6 171l1.7-.1c-.3 1.8-.7 3.9-.6 4.1.1.3 1.1 5.2 1.5 7.2l-3.1-.4-6.2-2.8c.2-2.7.6-8.8.6-8.8l.6-1.3 5.5 2.1zm-8.5-3.2 2.2.9-.8 1.7-.4 8.4-2.1-.9-1.3-5.6 2.4-4.5zm63.6 44.7c0 .3-.2 4.1-.4 7.5h2.1l.3-5.9 4-13.7s6.6-7.9 8.8-10.3l-9.7 9.2s-5.1 12.7-5.1 13.2zm14.8-22.4.7-.6c-.1 0-.4.3-.7.6zm-47.9-25.3-.8-3.5h.3-.3l-1.1-4.4.8 4.4-11.4-1-7.6-1.7s7.1 2.9 7.6 2.9h1.9l1.3 5.4.2 7.1 1.4 6.7 1.3 4.7-.6-4.5s-1.1-6.1-1.3-6.6c-.2-.4-.6-7.4-.6-7.4l-1.8-5.5c2.8 0 7.7-.1 9.4-.1l.7 4 1.4 4.7-.8 5 1.3 5.4.7 2.7-.3-3.6-1.1-4.4 1-5.8-1.6-4.5z" fill="#0d181b" stroke-width="none" opacity="1"></path></g><g id="svga-group-head" transform="matrix(1,0,0,1,0,0)"><g id="svga-group-ears-left-move" transform="matrix(1,0,0,1,0,0)"><g id="svga-group-ears-left"><path id="SvgjsPath7920" d="m67.3 102.2-3-7.2-9.2-8-3.6 12.9 4.7 12.7-.4 5.6 5 2.4 6-11.1z" fill="#f3d4cf" stroke-width="none" opacity="1" stroke="none"></path><path id="SvgjsPath7921" d="m53.5 100 1.9-8.4 3.7 10.6-.8 1 .4 5.9s-3.3-2.1-3.3-2.7.3-6.2.3-6.2l.9-.3-.9-4.5-1.6 6.1.4 3-1-4.5z" fill="#d4958a" stroke-width="none" opacity="1" stroke="none"></path><path id="SvgjsPath7922" d="m61.4 111.8-.7-12L55.1 87l9.2 8 3 7.2-.5 7.3-6 11.1-5-2.4 4.8.3z" fill="#e4b3ab" stroke-width="none" opacity="1" stroke="none"></path></g></g><g id="svga-group-ears-right-move" transform="matrix(1,0,0,1,0,0)"><g id="svga-group-ears-right"><path id="SvgjsPath7923" d="m132.7 102.2 3-7.2 9.2-8 3.6 12.9-4.7 12.7.4 5.6-5 2.4-6-11.1z" fill="#f3d4cf" stroke-width="none" opacity="1" stroke="none"></path><path id="SvgjsPath7924" d="m146.5 100-1.9-8.4-3.7 10.6.8 1-.4 5.9s3.3-2.1 3.3-2.7-.3-6.2-.3-6.2l-.9-.3.9-4.5 1.6 6.1-.4 3 1-4.5z" fill="#d4958a" stroke-width="none" opacity="1" stroke="none"></path><path id="SvgjsPath7925" d="m138.6 111.8.7-12 5.6-12.8-9.2 8-3 7.2.5 7.3 6 11.1 5-2.4-4.8.3z" fill="#e4b3ab" stroke-width="none" opacity="1" stroke="none"></path></g></g><g id="svga-group-faceshape-wrap"><g id="svga-group-faceshape-single"><path id="SvgjsPath7956" d="M136.8 61c-6.7-11.2-19-18.9-19-18.9-7-1.5-17.8-2.2-17.8-2.2s-10.8.8-17.8 2.2c0 0-12.4 7.6-19 18.9 0 0-5 14-5.2 23.9 0 0 2.6 23.7 5.8 34 0 0 9.9 19.8 19.6 29.7 0 0 11.5 6.3 16.6 6.3s16.6-6.3 16.6-6.3c9.7-9.9 19.6-29.7 19.6-29.7 3.1-10.3 5.8-34 5.8-34-.3-9.8-5.2-23.9-5.2-23.9z" fill="#f3d4cf" stroke-width="none" opacity="1" stroke="none"></path><path id="SvgjsPath7957" d="m85.8 45.6 28.8-.8L136.8 61c-6.7-11.2-19-18.9-19-18.9-7-1.5-17.8-2.2-17.8-2.2s-10.8.8-17.8 2.2c0 0-12.4 7.6-19 18.9 0 0-5 14-5.2 23.9 0 0 2.6 23.7 5.8 34 0 0 9.9 19.8 19.6 29.7 0 0 11.5 6.3 16.6 6.3-4.1-.5-15.3-8.6-15.3-8.6-3.3-4.7-15.2-28-15.2-28-2.5-6.4-6.6-34.9-6.6-34.9.3-3.3 4.4-20.5 4.4-21.3s18.5-16.5 18.5-16.5z" fill="#d4958a" stroke-width="none" opacity="1" stroke="none"></path></g></g><g id="svga-group-mouth-single-move" transform="matrix(1,0,0,1,0,0)"><g id="svga-group-mouth-single"><path id="SvgjsPath8379" d="m87.06 129.72 8.35 5.42 10.61.06 7.84-5.34-12.92-.14-8.99-.19z" fill="#da7c87" stroke-width="none" opacity="1" transform="translate(0 3)"></path><path id="SvgjsPath8380" d="m85.79 129.82 10.42.48 4.25 2.03 3.67-2.22 11.01-.15-11.22-2.66-3.72 1.74-4.26-1.59z" fill="#cb5f6c" stroke-width="none" opacity="1" transform="translate(0 3)"></path><path id="SvgjsPath8381" d="m111.64 130.62-5.86 4.08-4.6.03 4.43-.38z" fill="#f9bfc6" stroke-width="none" opacity="1" transform="translate(0 3)"></path><path id="SvgjsPath8382" d="M100.51 129.4s3.35-1.68 3.47-1.68 5.44 1.41 5.44 1.41l-5.4-1.03-3.51 1.3z" fill="#e28c96" stroke-width="none" opacity="1" transform="translate(0 3)"></path></g></g><g id="svga-group-eyes-left-move" transform="matrix(1,0,0,1,0,0)"><g id="svga-group-eyes-left"><g id="svga-group-eyesback-left"><path id="SvgjsPath8054" d="m90.6 103.9-3.9-7s-12.7-.2-17.6.2c0 0 7.4 5.5 9.3 6.7 0 0 8.1.3 12.2.1z" fill="#ffffff" stroke-width="none" opacity="1"></path></g><g id="svga-group-eyesiriswrapper-left" transform="matrix(1,0,0,1,0,0)"><g id="svga-group-eyesiriscontrol-left" transform="matrix(1,0,0,1,0,0)"><g id="svga-group-eyesiris-left"><path id="SvgjsPath7990" d="m80.1 103.9-2.4-1.7-.9-2.8.9-2.7 2.4-1.8H83l2.3 1.8.9 2.7-.9 2.8-2.3 1.7z" fill="#6d6a48" stroke-width="none" opacity="1"></path><path id="SvgjsPath7991" d="m82.9 95.2 2.2 1.6.8 2.6-.8 2.6-2.2 1.6h-2.8l-2.2-1.6-.8-2.6.8-2.6 2.2-1.6h2.8m.2-.5H80l-2.5 1.8-.9 2.9.9 2.9 2.5 1.8h3.1l2.5-1.8.9-2.9-.9-2.9-2.5-1.8z" fill="#4e4b24" stroke-width="none" opacity="1"></path><path id="SvgjsPath7992" d="M82.3 97.1h-1.5l-1.3.9-.4 1.4.4 1.5 1.3.9h1.5l1.2-.9.5-1.5-.5-1.4z" fill="#000000" stroke-width="none" opacity="1"></path><path id="SvgjsPath7993" d="m82.8 103.6.1-.7.8.2.1-.8.8.2s-.2-.7-.1-.7.7.1.7.1l-.4-.8.7-.2-.4-.8.8-.3-.6-.4.4-.6-.6-.3.3-.8-.6-.2.2-.7h-.5l-.1-.4h-.3l-.1-.5 1.2.6.7 1.7.4 1.4-.1.5-.7 2.3-1.8 1.4-.8.5-2.1-.2.4-.6.5.3.5-.4.6.2z" fill="#4e4b24" stroke-width="none" opacity="1"></path><path id="SvgjsPath7994" d="m77.8 100.6 1.1-.3v.2l-1.1.3v-.2zm.8-1.6c-.4-.1-.9-.1-1-.1v-.2s.1 0 1 .1v.2zm.5-2.6.1-.1.6.7-.1.1-.6-.7zm2-.6h.2v.8h-.2v-.8zm2.5 1.6.6-.6.1.1-.6.6-.1-.1zm.8 1.5.6-.1v.2h-.6v-.1zm-.2 1.5.1-.1.6.3-.1.1-.6-.3zm-1.3 1.4.1-.1.4.8-.1.1-.4-.8zm-2.9 1.3.4-1.1.2.1-.4 1.1-.2-.1zm-1-1.1.3-.4.1.1-.3.4-.1-.1z" fill="#4e4b24" stroke-width="none" opacity="1"></path><path id="SvgjsPath7995" d="m81.2 97.2-.9-.3-.7.7.2.8.9.3.7-.6z" fill="#ffffff" stroke-width="none" opacity="1"></path><path id="SvgjsPath7996" d="m83.1 101-.5-.3-.6.3v.6l.6.3.5-.3z" fill="#ffffff" stroke-width="none" opacity="1"></path></g></g></g><g id="svga-group-eyesfront-left"><path id="SvgjsPath8062" d="M68 94.5v11.1l7.7 7.9h10.9l7.7-7.9V94.5l-7.7-7.9H75.7L68 94.5zm1.1 2.6c4.9-.4 17.6-.2 17.6-.2l3.9 7c-4.1.3-12.2-.1-12.2-.1-1.9-1.3-9.3-6.7-9.3-6.7z" fill="#f3d4cf" stroke-width="none" opacity="1" stroke="none"></path><path id="SvgjsPath8063" d="m93.4 106.5-1 .3-2-2.1-12.2-.5-4.2-3.5 4.5 2.8 11.7.2z" fill="#e4b3ab" stroke-width="none" opacity="1" stroke="none"></path><path id="SvgjsPath8064" d="m68.1 97.2-5.2-2.6 4.9 1.3h2.3L66 93.6l6.5 2.4 3.2.1-5.6-2.6 7.5 2.6 10 .2 5.8 10.2-3.2-2.8-3.4-6.1-16.9-.2 8.6 6.1z" fill="#000000" stroke-width="none" opacity="1" stroke="none"></path></g></g></g><g id="svga-group-eyes-right-move" transform="matrix(1,0,0,1,0,0)"><g id="svga-group-eyes-right"><g id="svga-group-eyesback-right"><path id="SvgjsPath8055" d="m109.4 103.9 3.9-7s12.7-.2 17.6.2c0 0-7.4 5.5-9.3 6.7 0 0-8.1.3-12.2.1z" fill="#ffffff" stroke-width="none" opacity="1"></path></g><g id="svga-group-eyesiriswrapper-right" transform="matrix(1,0,0,1,0,0)"><g id="svga-group-eyesiriscontrol-right" transform="matrix(1,0,0,1,0,0)"><g id="svga-group-eyesiris-right"><path id="SvgjsPath7997" d="m117 103.9-2.3-1.7-.9-2.8.9-2.7 2.3-1.8h2.9l2.4 1.8.9 2.7-.9 2.8-2.4 1.7z" fill="#6d6a48" stroke-width="none" opacity="1"></path><path id="SvgjsPath7998" d="m119.8 95.2 2.2 1.6.8 2.6-.8 2.6-2.2 1.6H117l-2.2-1.6-.8-2.6.8-2.6 2.2-1.6h2.8m.2-.5h-3.1l-2.5 1.8-.9 2.9.9 2.9 2.5 1.8h3.1l2.5-1.8.9-2.9-.9-2.9-2.5-1.8z" fill="#4e4b24" stroke-width="none" opacity="1"></path><path id="SvgjsPath7999" d="M119.2 97.1h-1.5l-1.2.9-.5 1.4.5 1.5 1.2.9h1.5l1.3-.9.4-1.5-.4-1.4z" fill="#000000" stroke-width="none" opacity="1"></path><path id="SvgjsPath8000" d="m119.7 103.6.1-.7.8.2.1-.8.8.2s-.2-.7-.1-.7.7.1.7.1l-.4-.8.7-.2-.4-.9.8-.3-.6-.4.4-.6-.6-.3.3-.8-.6-.2.2-.7h-.5l-.1-.4h-.3l-.1-.5 1.2.6.7 1.7.4 1.4-.1.5-.7 2.3-1.8 1.4-.8.5-2.1-.2.4-.6.5.3.5-.4.6.3z" fill="#4e4b24" stroke-width="none" opacity="1"></path><path id="SvgjsPath8001" d="m114.7 100.6 1.1-.3v.2l-1.1.3v-.2zm.8-1.6c-.4-.1-.9-.1-1-.1v-.2s.1 0 1 .1v.2zm.5-2.6.1-.1.6.7-.1.1-.6-.7zm2-.6h.2v.8h-.2v-.8zm2.5 1.6.6-.6.1.1-.6.6-.1-.1zm.8 1.5.6-.1v.2l-.6.1v-.2zm-.2 1.5.1-.1.6.3-.1.1-.6-.3zm-1.2 1.4.1-.1.4.8-.1.1-.4-.8zm-3 1.3.4-1.1.2.1-.4 1.1-.2-.1zm-1-1.1.3-.4.1.1-.3.4-.1-.1z" fill="#4e4b24" stroke-width="none" opacity="1"></path><path id="SvgjsPath8002" d="m118.1 97.2-.9-.3-.6.7.2.8.8.3.7-.6z" fill="#ffffff" stroke-width="none" opacity="1"></path><path id="SvgjsPath8003" d="m120 101-.5-.3-.5.3v.6l.5.3.5-.3z" fill="#ffffff" stroke-width="none" opacity="1"></path></g></g></g><g id="svga-group-eyesfront-right"><path id="SvgjsPath8065" d="M124.3 86.6h-10.9l-7.7 7.9v11.1l7.7 7.9h10.9l7.7-7.9V94.5l-7.7-7.9zm-2.7 17.2s-8.1.4-12.2.1l3.9-7s12.7-.2 17.6.2c0 0-7.4 5.4-9.3 6.7z" fill="#f3d4cf" stroke-width="none" opacity="1" stroke="none"></path><path id="SvgjsPath8068" d="m106.6 106.5 1 .3 2-2.1 12.2-.5 4.2-3.5-4.5 2.8-11.7.2z" fill="#e4b3ab" stroke-width="none" opacity="1" stroke="none"></path><path id="SvgjsPath8069" d="m131.9 97.2 5.2-2.6-4.9 1.3h-2.3l4.1-2.3-6.5 2.4-3.2.1 5.6-2.6-7.5 2.6-10 .2-5.8 10.2 3.2-2.8 3.4-6.1 16.9-.2-8.6 6.1z" fill="#000000" stroke-width="none" opacity="1" stroke="none"></path></g></g></g><g id="svga-group-facehighlight-single"></g><g id="svga-group-eyebrows-left-move" transform="matrix(1,0,0,1,0,0)"><g id="svga-group-eyebrows-left-rotate" transform="matrix(1,1.7453292519943295e-9,-1.7453292519943295e-9,1,1.5341443315719516e-7,-1.3971360601772176e-7)"><g id="svga-group-eyebrows-left"><path id="SvgjsPath8122" d="m93.2 89.1-.6 1.9-2.1 1.2-11.6-5.5-7.1-.1-4.9 3.1 4.3-4.7 7.5-1.4 9.1 2.7z" fill="#6b4e40" stroke-width="none" opacity="1"></path><path id="SvgjsPath8123" d="m90 87.5.8.4-.4 2.5-.4-2.9zm-5.5-2.2 1.4 2.4-1.9-2.5.5.1zm3.3 1 .3.2c.2 1.3.5 3.4.5 3.4l-1.4-3.7.6.1zm-5.6-1.6.7 1.3-2-1.7 1.3.4zM71 86.3c-.1 0 0 0 0 0zm-1.7.7c.7-.3 1.3-.6 1.6-.7-.3.2-1.4 1-2.5 1.7l.9-1zm6-2.7 1.6 1.6-2.1-1.5.5-.1zm-4.1.7 1.5-.3 2.3.7c0 .1-2.2-.2-3.8-.4z" fill="#7a6155" stroke-width="none" opacity="1"></path></g></g></g><g id="svga-group-eyebrows-right-move" transform="matrix(1,0,0,1,0,0)"><g id="svga-group-eyebrows-right-rotate" transform="matrix(1,1.7453292519943295e-9,-1.7453292519943295e-9,1,1.5341443315719516e-7,-2.093522368795675e-7)"><g id="svga-group-eyebrows-right"><path id="SvgjsPath8124" d="m106.8 89.1.6 1.9 2.1 1.2 11.6-5.5 7.1-.1 4.9 3.1-4.3-4.7-7.5-1.4-9.1 2.7z" fill="#6b4e40" stroke-width="none" opacity="1"></path><path id="SvgjsPath8125" d="m110 87.5-.8.4.4 2.5.4-2.9zm5.5-2.2-1.4 2.4 1.9-2.5-.5.1zm-3.3 1-.3.2c-.2 1.3-.5 3.4-.5 3.4l1.4-3.7-.6.1zm5.6-1.6-.7 1.3 2-1.7-1.3.4zm11.2 1.6c.1 0 0 0 0 0zm1.7.7c-.7-.3-1.4-.6-1.6-.7.3.2 1.4 1 2.5 1.7l-.9-1zm-6-2.7-1.6 1.6 2.1-1.5-.5-.1zm4.1.7-1.5-.3-2.3.7c0 .1 2.2-.2 3.8-.4z" fill="#7a6155" stroke-width="none" opacity="1"></path></g></g></g><g id="svga-group-nose-single-move" transform="matrix(1,0,0,1,0,0)"><g id="svga-group-nose-single"><path id="SvgjsPath8096" d="m93.25 113.14-3.28 4.66 3.08 3.94 4.12-2.2-4.12 1.3-2.25-3.3z" fill="#d4958a" stroke-width="none" opacity="1" transform="translate(0 2)" stroke="none"></path><path id="SvgjsPath8097" d="m106.75 113.14 3.28 4.66-3.08 3.94-4.12-2.2 4.12 1.3 2.25-3.3z" fill="#d4958a" stroke-width="none" opacity="1" transform="translate(0 2)" stroke="none"></path><path id="SvgjsPath8098" d="m104.97 117.51.95-2.11-1.74 2.4-4.18 2-4.18-2-1.74-2.4.95 2.11-2.3 1.13.84 1.23 2.67-1.15 3.76 2.05 3.76-2.05 2.67 1.15.84-1.23z" fill="#d4958a" stroke-width="none" opacity="1" transform="translate(0 2)" stroke="none"></path><path id="SvgjsPath8099" d="m96.3 110.5 1.55-.44 5.65.18-1.5-.8-4.6-.4z" fill="#d4958a" stroke-width="none" opacity="1" transform="translate(0 2)" stroke="none"></path><path id="SvgjsPath8100" d="m97.45 102.28-.8 6.94.75-.93.49-3.62z" fill="#d4958a" stroke-width="none" opacity="1" transform="translate(0 2)" stroke="none"></path><path id="SvgjsPath8101" d="m95.73 112.93 2.2-1.63 4.29-.05 1.94 1.95-1.37 3.75-3.04.53-2.74-.57z" fill="#fbe5e2" stroke-width="none" opacity="1" transform="translate(0 2)" stroke="none"></path></g></g><g id="svga-group-hair-front"><path id="SvgjsPath8252" d="m61 99.3-6.1-11.6L53 72.1l-10.6-1.3-5.1-8.4 2.8-14.8 7.1-7.2 5.1-10.1 15.2-7.8 12.3 3.1 1.5 2.6 5 6.5-.4 3.4 8.7.2 4.8 1.1 4-1.1 10.6.7-.4-3.6 6.3-7.9 9.1 1.1 13.3-.2 9.7 7 2.7 7.3 8 13.3-.2 6.6-4.2 6.3-5.3 3-6.7.2-.7 12.2-1 4.9-5.3 8.9.6-14.4-5-10.6-11.4-9.5-14.4-2.5-8 2.8-10.4-2.8-12.6 3.4-11 9.3L61 83.9z" fill="#43322a" stroke-width="none" opacity="1" stroke="none"></path><path id="SvgjsPath8253" d="m85.5 59-6.1 10.2 4.9 13.7-2.1-12.7 7.4-10.1h5.1l6.3 3.8-6-6.2-9.5 1.3zM70.2 44.1l-3.6-14.6 1.7 13.4L61 54.4l-9.2-.8-2.6-9.6 1.5 11 11.5 1.5 8-12.4zm-29.8 8.7 3.2 12-1.5-11.7 5.4-9.5-7.1 9.2zm111.8-12.4-5.9-2.9-9.8 2.9-.7 10.7 9.3 8.5-7.6-9.2 1-7.8 6.8-3 5.9 1.9 3.6 5.1-2.6-6.2zm-38.6 19.8 13.9-.7 7.1-6.1-7.8 4.6-13.2 2.2zm-2.7-12.7-7.6 4.8 8.1-2.9 17.1-1-17.6-.9zM73.1 60.4l4.7 2.5-8.6-8.1 3.9 5.6zm-10.5.7c-.2.5-.7 8.5-.7 8.5l2.9 5.8-1.5-7.4-.7-6.9z" fill="#4b3a33" stroke-width="none" opacity="1" stroke="none"></path><path id="SvgjsPath8254" d="M77.3 45.9h11.8l11 2.5-4-3.2-8.4-1.9-10.4 2.6zm47.9-1.5-6.1-1.5-11.8 1.7-5.9 4.8 8.9-3.4 14.9-1.6zm.4 8.3-14.4 1.1-10.6 5.5 19.2-2.3 13.1-5.1-7.3.8zm30.8-1.1-6.6-7.4-6.8 1.9-.6 5.5 3.2-3.6 8.7 4.2-.8 7.2 2.9-7.8zM54.1 61.2l2.2-.4h-2.1l1-3.8-1.8 3.8H49l-3.8-8.4 2.1-12-3.9 4-.8 4.2.8 6.7 5.5 7 4.3-.9-3.4 6.9-7 .2-4-3.5 3.6 5.8 6.1.8h.3l3.8-4.7 1.5-5.7zm16.4-9.6 2-1.7 12.5.6 11.2 4.9 3 2.5-5.9-7.8-12.9-1.9-7.8 1.6 9.1-7.9 6.6-3.8L86 38l.4-3.4-4.9-6.5-.9-1.1c-3.8-1.2-9.3-3-13.6-4.2L64.7 24c3.8.8 11.1 2.4 15.9 3.4-1 4.7-2.3 10.1-2.3 10.1s-9.5 2.3-8.9 2.3c.4 0 4.7 1.2 7.8 2l-9.4 6.8-7-2.5-2.5-4.2s2-11.5 3.1-16.3L58.8 27c-2.1 7.2-5.2 18.7-5.2 18.7l8.9 5.9h8zm-5.6 4.8 4.2-3.6-9.6 6.2-7 13 .6.1L55 87.7l6 11.6V83.9l1.8-3-2.6-4.4 1-16.9 3.7-3.2c.1 1.6.7 8.2 1 8.7.2.3 3.1 2.8 5.6 4.9l2.8-2.3-5.3-3.6-4.1-7.7zm54.4-16.6 10.4 6.1-9.3-9.9 3.5-8-4.1-.5-6.3 8 .5 3.5 5.3.8zm22.3-2.8h6.8l5.7 4.2-2.1-5.7-6.6-2.3-12.7 3.6s-.2 13.1-.2 13.7l3-10.1 6.1-3.4zm17.8 28.3-5.9 4.2-4.6-1.1-1.5-3.2 4-2.7s-5.5-.4-6.6-.6-5.7-6.8-5.7-6.8l1.5-9.5-3.2 9.7v.1l-7.1 6.2L124 64l3.5 2.9 5.3-2.6 4.7-8.7.8 3.7 1.9 3c-.8 3.2-1.9 7.7-1.9 8 0 .3-1.5 1.9-3.1 3.4l2.3 4.9 3.6-7.6-.1-7.4 4 6.4-1.3 12.8-4.1 8.2-.3 7.2 5.3-8.9.9-4.9.8-12.2 6.6-.2 5.3-3 4.2-6.3.2-6.7-3.2 9.3zm-69.7-5.2-7.4 10.1 6.9-7.8 5.4-1.2 6.5 2.7-6.3-3.8h-5.1z" fill="#3b2a22" stroke-width="none" opacity="1" stroke="none"></path></g><g id="svga-group-glasses-single-move" transform="matrix(1,0,0,1,0,0)"><g id="svga-group-glasses-single"></g></g></g></g></g><rect id="svga-credit-rect" width="200" height="15" x="0" y="185" fill="#ecf0f1" opacity="0.5" style="display: none;"></rect><text id="svga-credit-text" font-family="Avenir Next, Roboto, Helvetica, Arial, sans-serif" font-size="10px" text-anchor="start" font-weight="400" size="10px" anchor="start" weight="400" fill="#333333" x="32.3828125" y="182.6015625" style="display: none;"><tspan id="SvgjsTspan7904" dy="13" x="32.3828125">Created on AvatarMaker.com</tspan></text></g><defs id="SvgjsDefs7856"></defs></svg>